# xmcd CD database file
#
# Track frame offsets:
#	150
#	13960
#	25469
#	35730
#	47407
#	63183
#	76317
#	94206
#	107829
#	123226
#	137931
#	156545
#	171224
#	183307
#
# Disc length: 2586 seconds
#
# Revision: 0
# Processed by: cddbd v1.5.2PL0 Copyright (c) Steve Scherf et al.
# Submitted via: CDex 1.70beta2
#
DISCID=c00a180e
DTITLE=Bill Kirchen - Have Love, Will Travel
DYEAR=1996
DGENRE=Country
TTITLE0=Womb To The Tomb
TTITLE1=Which Came First
TTITLE2=Don't Be True
TTITLE3=Have Love Will Travel
TTITLE4=High Snakes In Deep Water
TTITLE5=Swingin' Teardrops
TTITLE6=Who's That Who
TTITLE7=Red Cajun Girl
TTITLE8=I Heard The Highway
TTITLE9=Nitro Express
TTITLE10=The Heart Is A Muscle
TTITLE11=What's The Matter With The Mill
TTITLE12=Swing Fever
TTITLE13=I Don't Like To Work
EXTD=YEAR: 1996
EXTT0=
EXTT1=
EXTT2=
EXTT3=
EXTT4=
EXTT5=
EXTT6=
EXTT7=
EXTT8=
EXTT9=
EXTT10=
EXTT11=
EXTT12=
EXTT13=
PLAYORDER=
